<svg width="512" height="512" viewBox="0 0 512 512" fill="none" xmlns="http://www.w3.org/2000/svg">
<circle cx="256" cy="256" r="256" fill="url(#paint0_linear_1303_8)"/>
<path d="M214.507 315.2C206.707 315.2 200.107 315 194.707 314.6C189.507 314 182.607 313.1 174.007 311.9L173.707 343.4C173.507 348.8 173.407 356.5 173.407 366.5C173.407 371.7 171.907 375.8 168.907 378.8C166.107 381.6 162.907 383 159.307 383C152.707 383 147.807 382.2 144.607 380.6C141.407 378.8 139.807 375.7 139.807 371.3C139.807 365.5 140.307 357.3 141.307 346.7C143.507 323.9 144.607 300.5 144.607 276.5C144.607 254.1 143.907 233 142.507 213.2C142.707 210.4 144.107 207.2 146.707 203.6C149.507 200 153.007 198 157.207 197.6C161.807 197.6 169.107 196.8 179.107 195.2C189.507 193.6 197.407 192.8 202.807 192.8C219.207 192.8 231.907 194.4 240.907 197.6C250.107 200.8 259.307 206.1 268.507 213.5C278.507 229.1 283.507 240.1 283.507 246.5C283.507 259.9 280.807 271.8 275.407 282.2C270.007 292.6 262.107 300.7 251.707 306.5C241.307 312.3 228.907 315.2 214.507 315.2ZM207.607 218.3C201.207 218.3 195.607 218.7 190.807 219.5C186.207 220.1 180.607 221.2 174.007 222.8C174.807 241.2 175.207 254.6 175.207 263C175.207 271.6 174.907 278.8 174.307 284.6C182.907 286.4 189.707 287.6 194.707 288.2C199.707 288.6 205.307 288.8 211.507 288.8C226.307 288.8 236.707 285 242.707 277.4C248.907 269.6 252.007 260.6 252.007 250.4C252.007 247.4 251.107 243.7 249.307 239.3C247.507 234.9 245.907 232 244.507 230.6C239.107 225.8 233.807 222.6 228.607 221C223.607 219.2 216.607 218.3 207.607 218.3Z" fill="white"/>
<path d="M324.375 48C324.375 74.25 310 98 290 98C310 98 324.375 121.75 324.375 148C324.375 121.75 338.75 98 358.75 98C338.75 98 324.375 74.25 324.375 48Z" fill="#6ADBC6"/>
<path d="M382.75 98C382.75 150.812 354.312 198 314 198C354.312 198 382.75 245.188 382.75 298C382.75 245.188 411.188 198 451.5 198C411.188 198 382.75 150.812 382.75 98Z" fill="#FFE54D"/>
<path d="M464 198C464 224.25 449.625 248 429.625 248C449.625 248 464 271.75 464 298C464 271.75 478.375 248 498.375 248C478.375 248 464 224.25 464 198Z" fill="#FF73C0"/>
<defs>
<linearGradient id="paint0_linear_1303_8" x1="69" y1="450.5" x2="444" y2="73" gradientUnits="userSpaceOnUse">
<stop stop-color="#E9D200" stop-opacity="0.177228"/>
<stop offset="1" stop-color="#009D51"/>
</linearGradient>
</defs>
</svg>
